<?xml version="1.0" encoding="utf-8"?>
<!-- Generator: Adobe Illustrator 16.0.0, SVG Export Plug-In . SVG Version: 6.00 Build 0)  -->
<!DOCTYPE svg PUBLIC "-//W3C//DTD SVG 1.1//EN" "http://www.w3.org/Graphics/SVG/1.1/DTD/svg11.dtd">
<svg version="1.1" id="indieHD" xmlns="http://www.w3.org/2000/svg" xmlns:xlink="http://www.w3.org/1999/xlink" x="0px" y="0px"
	 width="188.667px" height="53.25px" viewBox="0 0 188.667 53.25" enable-background="new 0 0 188.667 53.25" xml:space="preserve">
<g>
	<g>
		<linearGradient id="SVGID_1_" gradientUnits="userSpaceOnUse" x1="35.9717" y1="82.1172" x2="146.8695" y2="-28.7807">
			<stop  offset="0" style="stop-color:#2EB6F0"/>
			<stop  offset="0.2419" style="stop-color:#3E4BCD"/>
			<stop  offset="0.5161" style="stop-color:#951DCD"/>
			<stop  offset="0.7688" style="stop-color:#D91FCA"/>
			<stop  offset="1" style="stop-color:#CE2F81"/>
		</linearGradient>
		<path fill="url(#SVGID_1_)" d="M186.475,12.723c-1.111-2.399-2.615-4.541-4.47-6.367c-1.896-1.863-4.105-3.332-6.571-4.372
			c-2.522-1.062-5.163-1.6-7.852-1.6h-8.158c-2.186,0-4.247,0.632-6.011,1.793c-1.798-1.136-3.814-1.733-5.929-1.733
			c-2.916,0-5.581,1.123-7.708,3.248c-0.559,0.559-1.047,1.156-1.465,1.786c-0.396-0.604-0.857-1.177-1.381-1.715
			c-2.124-2.174-4.861-3.318-7.927-3.318c-2.606,0-5.105,0.938-7.225,2.713c-2.445,2.043-3.795,4.995-3.795,8.307v1.112
			c-0.661-0.384-1.338-0.744-2.042-1.064c-2.671-1.214-5.503-1.829-8.419-1.829c-2.956,0-5.809,0.615-8.477,1.828
			c-0.747,0.34-1.462,0.727-2.159,1.138c0.033-0.352,0.058-0.706,0.058-1.065c0-2.845-1.048-5.454-3.029-7.545
			c-2.058-2.166-4.809-3.355-7.751-3.355c-1.966,0-3.817,0.507-5.468,1.463c-1.72-1.078-3.671-1.643-5.752-1.643
			c-1.447,0-2.857,0.282-4.192,0.838c-1.328,0.556-2.506,1.343-3.51,2.345c-0.964,0.966-1.731,2.076-2.295,3.311
			c-0.395,0.86-0.67,1.76-0.822,2.687c-2.864,0.026-5.627,0.622-8.217,1.77c-2.526,1.12-4.79,2.656-6.727,4.564
			c-0.101,0.099-0.188,0.209-0.287,0.31c-0.282-0.303-0.556-0.612-0.855-0.898c-1.966-1.877-4.276-3.351-6.866-4.381
			c-2.584-1.026-5.311-1.546-8.108-1.546c-3.031,0-5.902,0.576-8.535,1.713c-0.855,0.37-1.666,0.805-2.453,1.27
			c0.024-0.299,0.048-0.598,0.048-0.902c0-2.846-1.048-5.456-3.03-7.546c-2.054-2.164-4.805-3.354-7.75-3.354
			c-2.811,0-5.396,1.015-7.478,2.936C1.736,5.588,0.5,8.259,0.392,11.14l-0.005,0.132v0.131c0,1.935,0.403,3.526,0.988,4.816
			c-0.538,1.162-0.865,2.428-0.968,3.77l-0.021,0.267v0.268v21.72v0.478l0.065,0.474c0.386,2.818,1.635,5.234,3.61,6.986
			c1.998,1.778,4.52,2.723,7.285,2.723h0.241l0.241-0.017c1.975-0.137,3.772-0.724,5.319-1.703c1.615,0.889,3.406,1.36,5.297,1.36
			c2.881,0,5.524-1.091,7.643-3.154c1.473-1.438,2.489-3.187,2.98-5.086c0.485,2.076,1.585,3.941,3.213,5.401
			c2.065,1.855,4.648,2.839,7.463,2.839h0.13l0.129-0.005c2.891-0.107,5.479-1.252,7.484-3.311c0.166-0.17,0.315-0.35,0.468-0.527
			c1.269,0.9,2.623,1.684,4.075,2.31c2.632,1.137,5.422,1.713,8.293,1.713c2.896,0,5.707-0.596,8.357-1.771
			c1.625-0.721,3.128-1.631,4.518-2.684c0.483,0.697,1.038,1.342,1.677,1.909c2.003,1.781,4.524,2.725,7.287,2.725h0.242
			l0.241-0.017c2.921-0.202,5.467-1.368,7.363-3.373c0.3-0.317,0.569-0.653,0.824-0.997c1.339,1.001,2.78,1.869,4.334,2.558
			c2.484,1.102,5.116,1.66,7.82,1.66c0.256,0,0.513-0.005,0.771-0.015c1.981-0.056,3.903-0.321,5.715-0.788
			c2.295-0.591,4.408-1.662,6.273-3.184l0.361-0.294l0.115-0.123c0.335,0.441,0.695,0.868,1.102,1.265
			c2.106,2.049,4.759,3.128,7.678,3.128c3.032,0,5.75-1.112,7.856-3.217c0.555-0.556,1.04-1.15,1.455-1.781
			c0.433,0.657,0.939,1.272,1.516,1.836c2.126,2.07,4.77,3.162,7.653,3.162c1.498,0,2.964-0.312,4.355-0.926
			c0.548-0.24,1.071-0.529,1.574-0.852c1.787,1.167,3.831,1.777,6.01,1.777h8.158c2.823,0,5.55-0.578,8.104-1.719
			c2.452-1.092,4.637-2.601,6.488-4.482c1.816-1.849,3.283-3.994,4.359-6.38c1.148-2.543,1.73-5.248,1.73-8.039v-11.1
			C188.264,18.072,187.662,15.285,186.475,12.723z"/>
	</g>
</g>
<g>
	<path fill="#FFFFFF" d="M11.347,7.684c1.04,0,1.929,0.39,2.67,1.17c0.74,0.78,1.11,1.69,1.11,2.73s-0.37,1.949-1.11,2.729
		c-0.741,0.78-1.63,1.17-2.67,1.17c-1.161-0.039-2.11-0.409-2.85-1.109c-0.741-0.7-1.11-1.689-1.11-2.971
		c0.039-1.039,0.45-1.92,1.23-2.64C9.397,8.044,10.306,7.684,11.347,7.684z M11.347,16.863c1.04,0,1.91,0.381,2.61,1.141
		c0.699,0.76,1.089,1.68,1.17,2.76v21.24c0,1.08-0.34,1.979-1.02,2.7c-0.681,0.72-1.6,1.119-2.76,1.199
		c-1.041,0-1.92-0.319-2.64-0.96c-0.72-0.639-1.161-1.539-1.32-2.7v-21.72c0.08-1.039,0.5-1.899,1.26-2.58
		C9.406,17.264,10.306,16.904,11.347,16.863z"/>
	<path fill="#FFFFFF" d="M33.066,16.504c1.92,0,3.759,0.351,5.52,1.05c1.76,0.7,3.3,1.68,4.62,2.939
		c1.32,1.261,2.379,2.751,3.18,4.471c0.8,1.72,1.2,3.58,1.2,5.58v11.1c0,1.041-0.371,1.94-1.11,2.7c-0.74,0.76-1.65,1.16-2.73,1.2
		c-1.08,0-2.01-0.35-2.79-1.051c-0.78-0.699-1.17-1.59-1.17-2.67v-10.8c0-0.92-0.17-1.789-0.51-2.609
		c-0.34-0.819-0.82-1.53-1.44-2.131c-0.621-0.6-1.341-1.079-2.16-1.439c-0.82-0.36-1.71-0.54-2.67-0.54
		c-0.88,0-1.72,0.171-2.52,0.51c-0.801,0.341-1.5,0.79-2.1,1.351s-1.08,1.24-1.44,2.04s-0.54,1.641-0.54,2.52v10.92
		c0,1.041-0.4,1.95-1.2,2.73c-0.8,0.779-1.72,1.17-2.76,1.17c-1.041,0-1.96-0.36-2.76-1.08c-0.8-0.721-1.2-1.6-1.2-2.641v-10.8
		c0.04-1.999,0.429-3.879,1.17-5.64c0.74-1.76,1.76-3.3,3.06-4.62c1.299-1.32,2.829-2.359,4.59-3.12
		C29.066,16.884,30.986,16.504,33.066,16.504z"/>
	<path fill="#FFFFFF" d="M74.945,7.504c1.041,0,1.951,0.37,2.73,1.109c0.779,0.741,1.17,1.69,1.17,2.851v19.74
		c0,1.96-0.391,3.82-1.17,5.579c-0.779,1.761-1.84,3.301-3.18,4.62c-1.34,1.32-2.891,2.37-4.65,3.15s-3.6,1.17-5.52,1.17
		s-3.76-0.38-5.52-1.14c-1.761-0.76-3.311-1.801-4.65-3.12c-1.34-1.32-2.41-2.859-3.21-4.62c-0.8-1.76-1.2-3.64-1.2-5.64
		c0-1.96,0.39-3.82,1.17-5.58s1.839-3.301,3.18-4.62c1.339-1.32,2.889-2.37,4.65-3.15c1.76-0.78,3.619-1.17,5.58-1.17
		c2.4,0,4.619,0.54,6.66,1.62v-6.9c0-0.52,0.109-1.02,0.33-1.5c0.219-0.479,0.51-0.899,0.869-1.26c0.361-0.36,0.781-0.64,1.26-0.84
		C73.925,7.604,74.425,7.504,74.945,7.504z M64.326,24.483c-0.92,0-1.791,0.181-2.609,0.54c-0.821,0.36-1.541,0.851-2.161,1.47
		c-0.621,0.621-1.11,1.341-1.47,2.16c-0.36,0.82-0.54,1.671-0.54,2.551c0,0.92,0.18,1.79,0.54,2.609c0.36,0.82,0.85,1.53,1.47,2.13
		c0.62,0.601,1.339,1.08,2.161,1.44c0.818,0.359,1.689,0.54,2.609,0.54c0.879,0,1.719-0.181,2.52-0.54
		c0.801-0.36,1.51-0.85,2.131-1.47c0.619-0.62,1.109-1.33,1.469-2.131c0.361-0.799,0.541-1.659,0.541-2.579
		c0-0.961-0.18-1.851-0.541-2.671c-0.359-0.819-0.85-1.529-1.469-2.13c-0.621-0.6-1.33-1.069-2.131-1.41
		C66.044,24.654,65.205,24.483,64.326,24.483z"/>
	<path fill="#FFFFFF" d="M86.165,7.684c1.039,0,1.929,0.39,2.67,1.17c0.739,0.78,1.11,1.69,1.11,2.73s-0.371,1.949-1.11,2.729
		c-0.741,0.78-1.631,1.17-2.67,1.17c-1.161-0.039-2.11-0.409-2.851-1.109s-1.109-1.689-1.109-2.971
		c0.039-1.039,0.45-1.92,1.229-2.64C84.214,8.044,85.124,7.684,86.165,7.684z M86.165,16.863c1.039,0,1.909,0.381,2.609,1.141
		s1.09,1.68,1.171,2.76v21.24c0,1.08-0.341,1.979-1.021,2.7c-0.681,0.72-1.601,1.119-2.76,1.199c-1.041,0-1.92-0.319-2.641-0.96
		c-0.72-0.639-1.16-1.539-1.319-2.7v-21.72c0.079-1.039,0.499-1.899,1.26-2.58C84.224,17.264,85.124,16.904,86.165,16.863z"/>
	<path fill="#FFFFFF" d="M107.523,16.684c1.92,0,3.76,0.4,5.52,1.2c1.76,0.801,3.311,1.87,4.65,3.21
		c1.34,1.341,2.41,2.88,3.211,4.62c0.799,1.74,1.199,3.569,1.199,5.49c0,1.04-0.391,1.96-1.17,2.76
		c-0.779,0.801-1.75,1.18-2.91,1.14h-15.959c1.318,1.881,3.139,2.82,5.459,2.82c0.639,0,1.18-0.061,1.621-0.181
		c0.439-0.119,0.828-0.259,1.17-0.42c0.338-0.159,0.68-0.3,1.02-0.42s0.729-0.18,1.17-0.18c0.84,0.04,1.568,0.28,2.189,0.72
		c0.619,0.44,1.08,0.99,1.381,1.65c0.299,0.66,0.398,1.37,0.299,2.13c-0.1,0.761-0.449,1.461-1.049,2.1
		c-1.08,0.881-2.281,1.491-3.6,1.83c-1.32,0.341-2.721,0.531-4.201,0.57c-1.92,0.08-3.76-0.27-5.52-1.05
		c-1.762-0.78-3.311-1.84-4.65-3.181c-1.34-1.339-2.4-2.909-3.18-4.71c-0.779-1.8-1.17-3.659-1.17-5.579
		c0-1.88,0.391-3.7,1.17-5.461c0.78-1.759,1.831-3.309,3.151-4.649c1.32-1.34,2.859-2.409,4.619-3.21
		C103.703,17.084,105.563,16.684,107.523,16.684z M112.984,27.243c-0.682-0.84-1.48-1.509-2.4-2.01
		c-0.922-0.499-1.941-0.75-3.061-0.75c-1.16,0-2.189,0.251-3.09,0.75c-0.9,0.501-1.689,1.17-2.369,2.01H112.984z"/>
	<path fill="#FFFFFF" d="M147.484,7.443c1.039,0,1.988,0.381,2.85,1.141c0.859,0.76,1.289,1.72,1.289,2.88v30.24
		c0,0.52-0.109,1.02-0.33,1.5c-0.221,0.479-0.529,0.91-0.93,1.289c-0.4,0.381-0.85,0.681-1.35,0.9c-0.5,0.221-1.012,0.33-1.529,0.33
		c-1.041,0-1.961-0.39-2.762-1.17c-0.799-0.78-1.199-1.729-1.199-2.85v-11.04h-10.439v11.04c0,1.12-0.391,2.069-1.17,2.85
		c-0.781,0.78-1.75,1.17-2.91,1.17c-1.08,0-2.01-0.38-2.791-1.14c-0.779-0.76-1.189-1.72-1.229-2.88v-30.24
		c0-1.239,0.428-2.221,1.289-2.94c0.859-0.72,1.77-1.08,2.73-1.08c1.16,0,2.129,0.4,2.91,1.2c0.779,0.801,1.17,1.74,1.17,2.82v11.04
		h10.439v-11.04c0-1.08,0.4-2.02,1.199-2.82C145.523,7.844,146.443,7.443,147.484,7.443z"/>
	<path fill="#FFFFFF" d="M167.582,7.384c1.76,0,3.471,0.351,5.131,1.05c1.66,0.7,3.119,1.671,4.381,2.91
		c1.26,1.24,2.27,2.681,3.029,4.32c0.76,1.641,1.141,3.42,1.141,5.34v11.1c0,1.8-0.371,3.521-1.111,5.16
		c-0.74,1.641-1.73,3.09-2.969,4.35c-1.24,1.261-2.691,2.261-4.352,3c-1.66,0.741-3.41,1.11-5.25,1.11h-8.158
		c-1.08,0-2.031-0.39-2.852-1.17s-1.229-1.749-1.229-2.91v-30.18c0-1.04,0.389-1.98,1.17-2.82c0.779-0.84,1.748-1.26,2.91-1.26
		H167.582z M163.443,15.544v22.02h4.139c0.76,0,1.48-0.14,2.16-0.42c0.68-0.279,1.27-0.669,1.771-1.17
		c0.498-0.5,0.889-1.08,1.17-1.74c0.279-0.66,0.42-1.369,0.42-2.13v-11.1c0-0.76-0.141-1.471-0.42-2.13
		c-0.281-0.66-0.672-1.24-1.17-1.74c-0.502-0.5-1.092-0.89-1.771-1.17c-0.68-0.279-1.4-0.42-2.16-0.42H163.443z"/>
</g>
</svg>
